<?xml version="1.0" encoding="utf-8"?>
<!-- Generator: Adobe Illustrator 27.6.1, SVG Export Plug-In . SVG Version: 6.00 Build 0)  -->
<svg version="1.1" id="Camada_1" xmlns="http://www.w3.org/2000/svg" xmlns:xlink="http://www.w3.org/1999/xlink" x="0px" y="0px"
	 viewBox="0 0 800 800" style="enable-background:new 0 0 800 800;" xml:space="preserve">
<style type="text/css">
	.st0{fill-rule:evenodd;clip-rule:evenodd;fill:none;stroke:#000000;stroke-width:48;stroke-miterlimit:10;}
</style>
<path class="st0" d="M73.4,27c217.5,0.3,434.9,0.7,652.4,1c0,174,0,348,0,521.9c-85.6,0.3-171.2,0.7-256.9,1
	c-66.1,62.7-132.2,125.3-198.3,188c0-63,0-126,0-189c-65.1-0.3-130.1-0.7-195.2-1C74.8,375,74.1,201,73.4,27z"/>
<path class="st0" d="M87.8,53"/>
<line class="st0" x1="194" y1="127" x2="565" y2="127"/>
<line class="st0" x1="191" y1="255" x2="568" y2="255"/>
<line class="st0" x1="194" y1="383" x2="399.6" y2="383"/>
</svg>
