<?xml version="1.0" encoding="utf-8"?>
<!-- Generator: Adobe Illustrator 27.3.1, SVG Export Plug-In . SVG Version: 6.00 Build 0)  -->
<svg version="1.1" id="Camada_1" xmlns="http://www.w3.org/2000/svg" xmlns:xlink="http://www.w3.org/1999/xlink" x="0px" y="0px"
	 viewBox="0 0 512 512" style="enable-background:new 0 0 512 512;" xml:space="preserve">
<style type="text/css">
	.st0{fill:none;stroke:#020203;stroke-width:14;stroke-miterlimit:10;}
	.st1{fill:none;stroke:#000000;stroke-width:12;stroke-miterlimit:10;}
</style>
<g>
	<path class="st0" d="M156.22,247.5"/>
	<path class="st0" d="M155.36,255c-5.12,59.28,29.51,122.88,103.9,124.32c82.94-1.42,116.46-80.24,100.56-144.28"/>
	<path class="st1" d="M154.87,267.35c-9.45-24.97-33.29-51.44-4.55-104.4c21.8-40.16,68.18-45.78,79.44-48.42
		c10.98-2.57,67.75-15.85,114.99,18.91c7.18,5.28,38.97,29.86,35.56,72.63c-0.4,5,0.05,32.36-3.78,49.17
		c-1.73,7.58-15.64-21.94-17.12-21.86c-4.26,0.22-5.25-13.2-14.65-14.45c-5.87-0.78,1,7.76,0.76,23.45
		c-0.3,19.42,14.17,29.31,10.59,34.04c-4.87,6.44-38.5-2.85-62.79-27.23c-21.67-21.75-25.81-45.36-31.77-43.88
		c-5.22,1.29-7.29,20.62-2.27,37.83c6.57,22.53,21.5,28.37,18.91,34.8c-4.94,12.28-80.44-11.95-101.63-54.97
		C161.13,191.65,157.28,273.72,154.87,267.35z"/>
	<path class="st0" d="M121.57,231.04"/>
	<path class="st0" d="M380.56,233.38l99.1-22.52l-20.76,34.1c-6.08,8-12.84,15.44-20.09,22.38c-10.79,10.32-16.14,21.94-33.29,37.32
		c-4.24,6.51-41.89,8.7-49.91,7.26"/>
	<path class="st0" d="M145.38,246.29L25.79,222.34l23.55,34.1c6.89,8,14.56,15.44,22.79,22.38c12.24,10.32,18.31,21.94,37.76,37.32
		c4.81,6.51,47.52,8.7,56.62,7.26"/>
	<path class="st0" d="M206.99,292.69c16.57,0.3,16.57,24.89,0,25.19C190.5,317.58,190.5,293,206.99,292.69z"/>
	<path class="st0" d="M311.41,292.69c16.57,0.3,16.57,24.89,0,25.19C294.92,317.58,294.92,293,311.41,292.69z"/>
	<path class="st0" d="M518.46,336.21"/>
	<path class="st0" d="M227.99,336.95c10.59,15.63,22.18-1.1,27.59-1.66c4.19-0.44,14.77,16.79,26.37-3.18"/>
</g>
</svg>
