<?xml version="1.0" encoding="utf-8"?>
<!-- Generator: Adobe Illustrator 27.5.0, SVG Export Plug-In . SVG Version: 6.00 Build 0)  -->
<svg version="1.1" id="Layer_1" xmlns="http://www.w3.org/2000/svg" xmlns:xlink="http://www.w3.org/1999/xlink" x="0px" y="0px"
	 viewBox="0 0 800 800" style="enable-background:new 0 0 800 800;" xml:space="preserve">
<style type="text/css">
	.st0{fill:#231F20;}
</style>
<g>
	<path class="st0" d="M600,75c-55.2,0-105.2,22.4-141.4,58.6l-49.7,49.5c-4.9,4.9-12.8,4.9-17.7,0c0,0-49.6-49.6-49.7-49.5
		C305.2,97.4,255.2,75,200,75C89.5,75,0,164.5,0,275c0,41.7,12.8,80.5,34.7,112.5c0,0,9.2,14.6,20,25.4s310,310,310,310
		c9.8,9.8,22.6,14.7,35.3,14.7c12.8,0,25.6-4.9,35.3-14.7c0,0,299.1-299.1,310-310c10.8-10.8,20-25.4,20-25.4
		c21.9-32,34.7-70.8,34.7-112.5C800,164.5,710.5,75,600,75z M709.9,387.2c0,0-7.6,9.4-22.8,24.5C672,426.9,417.7,681.2,417.7,681.2
		c-4.9,4.9-11.3,7.3-17.7,7.3s-12.8-2.4-17.7-7.3c0,0-254.3-254.3-269.5-269.5s-22.8-24.5-22.8-24.5C63.8,355.8,48,315.3,49,270.9
		c2.2-95.2,57.1-146.7,152.3-146.9c22.7,0,58.2,7.5,86.4,27.3l12.1,11.9l70.5,58.5c9.8,9.8,49.6,9.8,59.4,0l70.5-58.5l12.1-11.9
		c27.1-19.7,58.7-27.3,86.4-27.3c95.2,0.1,150.1,51.7,152.2,146.9C752,315.3,736.2,355.9,709.9,387.2z"/>
	<path class="st0" d="M600,150c-6.9,0-12.5,5.6-12.5,12.5S593.1,187,600,187c55.2,0,88,32.8,88,88c0,6.9,17.6,12.5,24.5,12.5
		S725,281.9,725,275C725,206,669,150,600,150z"/>
</g>
</svg>
