<svg version="1.1" id="Camada_1" xmlns="http://www.w3.org/2000/svg" xmlns:xlink="http://www.w3.org/1999/xlink" x="0px" y="0px"
	 viewBox="0 0 512 512" style="enable-background:new 0 0 512 512;" xml:space="preserve">
<style type="text/css">
	.st0{fill:none;stroke:#000000;stroke-width:14;stroke-miterlimit:10;}
</style>
<path class="st0" d="M115,250.7c-12.8-1.6-28.8,4.2-29,18.8v86.9c-0.1,12.9,17.1,20.9,29,19.3"/>
<path class="st0" d="M356,447c23.4,1.9,44.1-16.1,44-39.9c-0.1-296.4,34-218.4-245.1-229.1c-22,0-39.9,17.8-39.9,39.9v189.2
	c0,21.8,17.6,39.6,39.3,39.9"/>
<path class="st0" d="M310,178c0.9-13-0.4-27.3-16.7-28h-71.7c-16.9,1.2-17.3,14.6-16.6,28.1"/>
<path class="st0" d="M297.2,178.6"/>
<path class="st0" d="M340.6,457H170.4c-6.3,0-11.4-7.4-11.4-16.4v-88.2c0-9.1,5.1-16.4,11.4-16.4h170.2c6.3,0,11.4,7.4,11.4,16.4
	v88.2C352,449.6,346.9,457,340.6,457z"/>
<path class="st0" d="M400,333"/>
<path class="st0" d="M258,179"/>
<path class="st0" d="M182.7,218.6c49.8,0.9,49.8,74.9,0,75.7C132.9,293.4,132.9,219.4,182.7,218.6z"/>
<path class="st0" d="M332.7,216.8c49.8,0.9,49.8,74.9,0,75.7C282.9,291.7,283,217.6,332.7,216.8z"/>
<path class="st0" d="M332.7,242c16.5,0.1,16.5,25.2,0,25.2S316.2,242.1,332.7,242z"/>
<path class="st0" d="M334.4,62l-10.6,23.5l-75.9-21.6l54.3,47.8l-45.4,13.7c0.2,4.4,0.6,18.7,1,22.8"/>
<path class="st0" d="M345.4,21.5c25.6,0.4,25.6,38.5,0,39C319.7,60,319.7,21.9,345.4,21.5z"/>
<path class="st0" d="M345,255h26"/>
<path class="st0" d="M320,255h-25"/>
<path class="st0" d="M333,242v-25"/>
<path class="st0" d="M258,420l33-51.8v55l31.9-55.6l3.3,56l25.8-56.4"/>
<path class="st0" d="M333,267v26"/>
<path class="st0" d="M161.7,370.7h97"/>
<path class="st0" d="M159.9,400h97"/>
<path class="st0" d="M159.9,428.9h97"/>
<path class="st0" d="M401.3,256.3c11.8-1.6,26.5,4.2,26.7,18.8V362c0.1,12.9-15.8,20.9-26.7,19.3"/>
<path class="st0" d="M258.8,334.6l-0.1,121"/>
</svg>
