<?xml version="1.0" encoding="utf-8"?>
<!-- Generator: Adobe Illustrator 27.6.1, SVG Export Plug-In . SVG Version: 6.00 Build 0)  -->
<svg version="1.1" id="Camada_1" xmlns="http://www.w3.org/2000/svg" xmlns:xlink="http://www.w3.org/1999/xlink" x="0px" y="0px"
	 viewBox="0 0 512 512" style="enable-background:new 0 0 512 512;" xml:space="preserve">
<path d="M184,139.3c-9.1-2.3-17,0.7-18.9,1.5c-24.4,9.9-28.6,47.3-29,52.3c-4.7,52.2,45.3,94.9,66.8,113.2
	c17.7,15.1,52.7,40.6,107.4,53.7c17.9,1.2,34.8-7.2,43.5-21.8c9.8-16.3,5.2-33.2,4.4-36.3c-16.5-16.6-37.8-33.6-53.7-27.6
	c-12.2,4.6-10.2,19.2-23.2,24.7c-21.2,8.9-50.1-19.8-71.1-40.6c-6.7-6.6-14-14.9-14.5-26.1c-0.1-3.1,0-12,5.8-18.9
	c4-4.7,7.3-4.5,10.2-7.3C223.4,194.5,211.8,146.2,184,139.3z"/>
<path d="M247.1,6.7C102.4,6.7,7.9,136.4,5,248.8c-1.8,68.9,31.2,121.6,48.6,145.6C43.2,426,32.7,457.5,22.3,489
	c34.6-10.9,69.2-21.8,103.8-32.7c25,15.2,67.8,35.7,121.1,34.6c110-2.4,242.1-96.5,242.1-242.1C489.2,115.1,380.8,6.7,247.1,6.7z
	 M247.6,447c-43.6,0.9-78.5-15.8-99-28.3c-28.3,8.9-56.6,17.8-84.8,26.7c8.5-25.8,17.1-51.6,25.6-77.4
	c-14.3-19.6-41.2-62.7-39.8-119c2.3-91.9,79.7-198,198-198c109.3,0,198,88.6,198,198C445.6,368,337.5,445,247.6,447z"/>
</svg>
