<svg xmlns="http://www.w3.org/2000/svg" viewBox="0 0 897.8 351.14"><defs><style>.cls-1{fill:none;stroke-width:5px;}.cls-1,.cls-2{stroke:#fff;stroke-miterlimit:10;}.cls-2{fill:#fff;stroke-width:6px;}</style></defs><g id="Layer_2" data-name="Layer 2"><g id="Layer_1-2" data-name="Layer 1"><rect class="cls-1" x="39.69" y="2.5" width="195.43" height="276.08"/><polygon class="cls-2" points="4.06 343.51 45.2 343.51 103.24 156.9 61.37 156.9 4.06 343.51"/><polygon class="cls-2" points="80.1 239.56 121.61 343.51 166.79 343.51 121.98 246.53 120.88 242.86 212.71 156.9 162.75 156.9 80.1 239.56"/><rect class="cls-1" x="261.45" y="2.62" width="195.43" height="276.08"/><rect class="cls-1" x="484.37" y="2.5" width="195.43" height="276.08"/><rect class="cls-1" x="699.88" y="2.62" width="195.43" height="276.08"/><polygon class="cls-2" points="362.94 343.39 394.77 343.39 397.22 343.39 398.94 341.19 445.22 185.92 455.26 343.39 488.81 343.39 491.48 342.84 493.1 341.19 592.22 187.82 593.88 186.9 547.41 343.39 548.88 343.39 588.37 343.39 590.2 342.9 591.43 341.06 637.71 157.02 578.94 157.02 575.88 157.76 525.92 231.72 500.32 278 489.18 302.98 485.14 313.27 483.86 313.45 486.37 265.51 485.39 227.31 481.47 157.02 423.18 157.02 420.98 157.45 420.06 158.31 362.94 343.39"/><polygon class="cls-2" points="800.59 216.44 838.06 216.44 839.77 215.1 841.73 199.67 840.02 192.32 836.84 182.52 833.16 176.4 826.06 168.81 818.22 162.93 806.47 157.79 796.18 154.36 784.92 152.89 774.39 152.28 763.61 152.89 752.1 153.87 743.53 155.34 734.71 157.79 725.28 161.59 717.57 165.75 710.84 170.16 705.57 174.44 701.53 178.24 696.88 183.14 689.28 193.18 682.79 202.24 675.94 214.12 674.59 217.06 671.65 222.56 667.12 233.83 663.69 245.59 661.73 252.81 659.9 262.12 657.94 274.61 657.33 281.22 657.94 288.08 659.16 296.89 660.88 303.5 663.45 309.63 666.51 315.14 669.69 319.79 674.22 325.18 677.28 328.24 681.82 332.16 686.96 335.71 692.47 338.77 698.35 341.59 705.45 344.04 712.79 345.99 721.12 347.71 727.12 348.14 736.3 348.14 750.63 347.68 763.12 346.76 773.96 345.66 784.79 344.19 800.41 340.97 801.51 340.51 802.34 339.78 803.16 338.95 803.8 337.67 804.45 336.56 805.18 334.64 829.79 247.48 829.75 246.43 829.52 245.69 829.01 245.56 753.33 245.46 751.46 245.6 750.86 246.06 750.36 247.07 742.73 271.18 742.69 272.05 742.73 272.97 743.05 273.61 743.88 273.84 782.77 273.93 783.02 274.3 783.2 274.61 783.26 275.1 771.39 312.69 770.71 314.46 769.98 315.44 769.06 316.42 768.45 317.16 767.22 317.95 764.84 318.81 762.94 319.3 760.67 319.79 757.49 320.22 755.9 320.52 753.2 320.71 751 320.95 748.43 320.95 746.53 321.08 742.79 321.08 739.49 321.14 737.59 321.14 734.71 320.95 733.18 320.77 729.14 320.16 726.14 319.42 720.82 317.95 718 316.79 714.63 315.08 712.67 313.97 711.69 313.18 709.12 311.16 707.47 309.32 705.69 307.48 703.98 305.04 701.65 300.38 699.94 295.73 699.2 292.61 698.47 289.18 698.16 284.28 698.16 282.38 698.28 276.69 698.59 271.67 699.2 265.97 699.94 261.69 700.61 259.12 702.08 252.75 703.86 246.01 705.69 239.89 707.59 234.87 709.73 228.44 712 223.3 714.02 219.2 716.65 213.75 721.55 205.79 726.14 199.3 734.59 191.03 735.63 190.06 737.96 188.4 739.3 187.48 741.02 186.44 742.55 185.52 744.2 184.54 746.65 183.56 748.86 182.71 750.39 182.16 752.47 181.48 754.12 181.06 756.39 180.58 758.71 180.01 762.88 179.71 767.65 179.46 770.65 179.52 774.63 179.71 777.51 180.01 780.75 180.58 784.06 181.42 787.43 182.34 790 183.01 793 184.24 795.57 185.83 797.9 187.73 799.55 189.56 800.71 191.03 801.2 191.89 802.12 194.28 803.16 197.4 803.41 198.81 803.47 202.73 803.16 205.18 802.61 208.06 801.94 211.36 801.14 215.03 800.59 216.44"/><path class="cls-2" d="M371,186.17l-3.67-9.55-7.1-8.33-11-6.37-9.56-2.45L331.55,158l-6.36-1h-79.6l-2.45,1L187.8,343.39H226l22.41-73.83h44.94l9.79-1.35,12.49-2.45,11.76-3.67,6.61-2.7,8.33-4.65,7.83-5.88L357,242l4.9-7.1,4.41-8.32L369,218l2-8.57,1.23-12Zm-37,16.28-2.2,8.94-3.31,8.14-4.41,7.72-5.51,5.32-5.87,3.86L305,238.82l-7.22,1.47H255.16l17.15-57.8.27-.43h32.79l4.22.43,7.9.86,8.45,2.2,5.33,4.23,2.75,7Z"/></g></g></svg>