<?xml version="1.0" encoding="UTF-8" standalone="no"?>
<svg
   xmlns:dc="http://purl.org/dc/elements/1.1/"
   xmlns:cc="http://creativecommons.org/ns#"
   xmlns:rdf="http://www.w3.org/1999/02/22-rdf-syntax-ns#"
   xmlns:svg="http://www.w3.org/2000/svg"
   xmlns="http://www.w3.org/2000/svg"
   xmlns:sodipodi="http://sodipodi.sourceforge.net/DTD/sodipodi-0.dtd"
   xmlns:inkscape="http://www.inkscape.org/namespaces/inkscape"
   viewBox="0 0 512 512"
   version="1.1"
   id="svg4"
   sodipodi:docname="heart.svg"
   inkscape:version="1.0.2 (e86c870879, 2021-01-15, custom)">
  <metadata
     id="metadata10">
    <rdf:RDF>
      <cc:Work
         rdf:about="">
        <dc:format>image/svg+xml</dc:format>
        <dc:type
           rdf:resource="http://purl.org/dc/dcmitype/StillImage" />
      </cc:Work>
    </rdf:RDF>
  </metadata>
  <defs
     id="defs8" />
  <sodipodi:namedview
     pagecolor="#ffffff"
     bordercolor="#666666"
     borderopacity="1"
     objecttolerance="10"
     gridtolerance="10"
     guidetolerance="10"
     inkscape:pageopacity="0"
     inkscape:pageshadow="2"
     inkscape:window-width="2560"
     inkscape:window-height="1377"
     id="namedview6"
     showgrid="false"
     inkscape:zoom="1.96875"
     inkscape:cx="158.22222"
     inkscape:cy="256"
     inkscape:window-x="-8"
     inkscape:window-y="-8"
     inkscape:window-maximized="1"
     inkscape:current-layer="svg4" />
  <path
     fill="white"
     d="M462.3 62.7c-54.5-46.4-136-38.7-186.6 13.5L256 96.6l-19.7-20.3C195.5 34.1 113.2 8.7 49.7 62.7c-62.8 53.6-66.1 149.8-9.9 207.8l193.5 199.8c6.2 6.4 14.4 9.7 22.6 9.7 8.2 0 16.4-3.2 22.6-9.7L472 270.5c56.4-58 53.1-154.2-9.7-207.8zm-13.1 185.6L256.4 448.1 62.8 248.3c-38.4-39.6-46.4-115.1 7.7-161.2 54.8-46.8 119.2-12.9 142.8 11.5l42.7 44.1 42.7-44.1c23.2-24 88.2-58 142.8-11.5 54 46 46.1 121.5 7.7 161.2z"
     id="path2"
     style="fill:#000000;fill-opacity:1" />
</svg>
