<?xml version="1.0" encoding="UTF-8" standalone="no"?>
<svg
   xmlns:dc="http://purl.org/dc/elements/1.1/"
   xmlns:cc="http://creativecommons.org/ns#"
   xmlns:rdf="http://www.w3.org/1999/02/22-rdf-syntax-ns#"
   xmlns:svg="http://www.w3.org/2000/svg"
   xmlns="http://www.w3.org/2000/svg"
   xmlns:sodipodi="http://sodipodi.sourceforge.net/DTD/sodipodi-0.dtd"
   xmlns:inkscape="http://www.inkscape.org/namespaces/inkscape"
   id="svg8"
   version="1.1"
   viewBox="0 0 67.733332 67.733335"
   height="256"
   width="256"
   sodipodi:docname="swap.svg"
   inkscape:version="1.0.2 (e86c870879, 2021-01-15, custom)">
  <sodipodi:namedview
     pagecolor="#ffffff"
     bordercolor="#666666"
     borderopacity="1"
     objecttolerance="10"
     gridtolerance="10"
     guidetolerance="10"
     inkscape:pageopacity="0"
     inkscape:pageshadow="2"
     inkscape:window-width="2560"
     inkscape:window-height="1377"
     id="namedview9"
     showgrid="false"
     inkscape:zoom="3.9375"
     inkscape:cx="128"
     inkscape:cy="128"
     inkscape:window-x="-8"
     inkscape:window-y="-8"
     inkscape:window-maximized="1"
     inkscape:current-layer="svg8" />
  <defs
     id="defs2" />
  <metadata
     id="metadata5">
    <rdf:RDF>
      <cc:Work
         rdf:about="">
        <dc:format>image/svg+xml</dc:format>
        <dc:type
           rdf:resource="http://purl.org/dc/dcmitype/StillImage" />
        <dc:title />
      </cc:Work>
    </rdf:RDF>
  </metadata>
  <g
     transform="translate(0,-229.26665)"
     id="layer1"
     style="stroke:none;fill:#000000;fill-opacity:1">
    <g
       transform="matrix(0.64052436,0,0,0.65904074,-27.202958,151.09059)"
       id="g832"
       style="stroke:none;fill:#000000;fill-opacity:1">
      <path
         style="fill:#000000;fill-opacity:1;stroke:none;stroke-width:7.63579893;stroke-miterlimit:4;stroke-dasharray:none;stroke-opacity:1"
         d="m 478.9557,-203.61668 c -0.7234,-0.2655 -3.36397,-2.80451 -5.86793,-5.64223 -2.50395,-2.83773 -5.43499,-6.08219 -6.5134,-7.20991 -1.07842,-1.12772 -3.66123,-3.96878 -5.73958,-6.31345 -2.07835,-2.34468 -4.12391,-4.60443 -4.54568,-5.02166 -0.42178,-0.41723 -2.46734,-2.69008 -4.54569,-5.05076 -2.07835,-2.36069 -4.12391,-4.63309 -4.54569,-5.04977 -0.42178,-0.41669 -1.65657,-1.7804 -2.74399,-3.03046 -1.08742,-1.25007 -3.24662,-3.65417 -4.79822,-5.34247 -1.55161,-1.68829 -3.61728,-3.96113 -4.5904,-5.05076 -4.29239,-4.80634 -16.06116,-17.7776 -17.59735,-19.39537 -3.5315,-3.71904 -4.28776,-5.01867 -4.28776,-7.36846 0,-2.85774 0.89462,-4.51446 2.96946,-5.49903 1.38733,-0.65833 4.44875,-0.78047 19.56301,-0.78047 15.16603,0 18.01315,-0.11429 18.53581,-0.74405 0.96137,-1.15838 0.50914,-25.83666 -0.50422,-27.5153 -1.22169,-2.02376 -2.65158,-3.40756 -4.67692,-4.52618 l -1.90939,-1.05458 h -86.82795 c -57.34048,0 -86.93396,0.17153 -87.14011,0.50507 -0.17168,0.2778 -0.68542,0.50508 -1.14165,0.50508 -1.44518,0 -4.9885,4.2343 -5.34399,6.38612 -0.17697,1.07121 -0.32427,14.73238 -0.32732,30.35818 -0.005,27.73327 -0.0297,28.43462 -1.01572,29.42069 -0.55558,0.55559 -1.29426,1.01608 -1.6415,1.02334 -0.34724,0.007 -3.92696,-3.37723 -7.95495,-7.52106 -4.02798,-4.14383 -8.18283,-8.01359 -9.233,-8.59948 -2.30883,-1.28808 -7.49795,-1.4601 -9.77523,-0.32404 -1.42369,0.71023 -14.10239,13.15922 -16.35906,16.06268 -1.56698,2.01609 -3.7794,3.06303 -5.04337,2.38658 -0.99446,-0.53222 -1.00559,-1.13687 -1.00559,-54.61763 v -54.07945 l 1.52709,-3.19973 c 2.10912,-4.41926 6.34025,-7.82263 11.35235,-9.13144 2.60999,-0.68154 260.67937,-0.83728 263.90236,-0.15926 7.09558,1.4927 12.2668,6.25847 13.94442,12.85109 0.21207,0.83338 0.51377,17.31149 0.67045,36.61803 l 0.28488,35.1028 18.96399,0.25254 18.964,0.25254 1.23906,1.29062 c 1.99279,2.07574 2.50174,3.32792 2.50174,6.15514 0,2.37734 -0.20206,2.87797 -1.89404,4.69276 -1.04172,1.11734 -3.82595,4.18445 -6.18718,6.81579 -2.36123,2.63135 -4.41497,4.89791 -4.56386,5.03681 -0.14889,0.1389 -4.34974,4.79822 -9.33522,10.35406 -4.98548,5.55584 -10.22809,11.35159 -11.65026,12.87945 -1.42216,1.52785 -3.47163,3.8007 -4.55438,5.05076 -1.08274,1.25006 -2.31371,2.61377 -2.73549,3.03046 -0.42178,0.41669 -2.46734,2.6861 -4.54569,5.04313 -2.07835,2.35704 -4.34703,4.8606 -5.04151,5.56347 -0.69448,0.70287 -2.96722,3.20643 -5.05054,5.56347 -6.48929,7.34189 -7.28519,8.15561 -8.6877,8.88222 -1.54923,0.80262 -2.61024,0.83663 -4.49709,0.14412 z"
         id="path826"
         transform="matrix(0.26458333,0,0,0.26458333,0,229.26665)" />
      <path
         style="fill:#000000;fill-opacity:1;stroke:none;stroke-width:7.63579893;stroke-miterlimit:4;stroke-dasharray:none;stroke-opacity:1"
         d="m 223.62286,-79.861437 c -4.5341,-2.228129 -7.89045,-6.27586 -9.59449,-11.570908 -0.2235,-0.69448 -0.52704,-16.149815 -0.67455,-34.345185 l -0.26819,-33.0825 -18.55065,-0.25254 -18.55064,-0.25253 -1.31132,-1.3119 c -2.65592,-2.65707 -2.10719,-6.74187 1.41931,-10.56566 0.90088,-0.97682 2.64069,-2.90874 3.86625,-4.29315 1.22555,-1.38442 3.27111,-3.65675 4.54568,-5.04962 1.27457,-1.39288 4.02108,-4.46122 6.10336,-6.81853 2.08227,-2.35732 4.01419,-4.53739 4.29315,-4.84462 4.52256,-4.9809 8.38593,-9.29554 9.59856,-10.71975 0.83338,-0.97878 1.9698,-2.25215 2.52538,-2.82972 0.55559,-0.57757 2.71479,-2.98027 4.79823,-5.33933 2.08344,-2.35906 4.13002,-4.63058 4.54795,-5.04781 0.41794,-0.41724 2.46285,-2.69053 4.54425,-5.05176 2.0814,-2.36123 4.83457,-5.42957 6.11816,-6.81853 1.28359,-1.38896 3.98075,-4.40635 5.9937,-6.70532 2.01295,-2.29897 4.0736,-4.40135 4.57923,-4.67196 1.25303,-0.67059 4.34853,-0.62001 5.68049,0.0928 1.26383,0.67638 1.11477,0.52539 5.40679,5.47678 1.80564,2.08305 3.8512,4.35895 4.54568,5.05757 0.69448,0.69861 2.73485,2.97146 4.53416,5.05076 1.79931,2.0793 3.61759,4.12193 4.04061,4.53916 0.42303,0.41723 2.47064,2.69008 4.55026,5.05076 2.07961,2.36069 3.90158,4.4058 4.04881,4.5447 0.14724,0.13889 3.08264,3.43452 6.52311,7.3236 3.44048,3.88909 7.41427,8.32322 8.83064,9.85363 1.41637,1.5304 4.27568,4.71238 6.35403,7.07106 2.07836,2.35869 4.12563,4.62944 4.54951,5.04613 0.42388,0.41669 2.24631,2.45392 4.04986,4.52718 1.80355,2.07325 4.13149,4.65761 5.17321,5.74301 1.74372,1.81682 1.89404,2.20573 1.89404,4.90019 0,2.59789 -0.1704,3.08761 -1.51656,4.35851 l -1.51656,1.43178 -19.82291,0.25253 -19.82292,0.25254 -0.15068,10.10153 c -0.17611,11.80647 0.0888,13.08242 3.30408,15.9126 1.89456,1.66766 2.65163,1.98821 5.33559,2.25922 1.72027,0.17369 41.31153,0.24721 87.98058,0.16337 77.67555,-0.13955 84.98108,-0.22283 86.36924,-0.98462 1.84084,-1.01021 2.84567,-2.1032 4.2407,-4.61276 1.04307,-1.87641 1.06141,-2.39728 1.06141,-30.14967 0,-27.96265 0.0103,-28.24745 1.04282,-28.97069 1.3829,-0.96862 2.62,-0.58021 4.30887,1.35283 15.41328,17.64161 17.67438,19.32316 23.40179,17.40367 1.85801,-0.6227 6.55867,-5.07493 12.66277,-11.99356 6.54089,-7.41369 7.06006,-7.81851 8.93276,-6.96525 l 1.16877,0.53252 v 51.94864 c 0,30.47867 -0.1912,52.311107 -0.46262,52.825668 -0.25444,0.482368 -0.84835,1.761024 -1.31979,2.841458 -1.21013,2.773309 -4.69361,6.067542 -8.02977,7.593534 l -2.84467,1.301178 -132.69382,-0.01888 -132.69382,-0.01888 z"
         id="path828"
         transform="matrix(0.26458333,0,0,0.26458333,0,229.26665)" />
    </g>
  </g>
</svg>
