<?xml version="1.0" encoding="UTF-8" standalone="no"?>
<svg
   xmlns:dc="http://purl.org/dc/elements/1.1/"
   xmlns:cc="http://creativecommons.org/ns#"
   xmlns:rdf="http://www.w3.org/1999/02/22-rdf-syntax-ns#"
   xmlns:svg="http://www.w3.org/2000/svg"
   xmlns="http://www.w3.org/2000/svg"
   xmlns:sodipodi="http://sodipodi.sourceforge.net/DTD/sodipodi-0.dtd"
   xmlns:inkscape="http://www.inkscape.org/namespaces/inkscape"
   aria-hidden="true"
   focusable="false"
   data-prefix="fas"
   data-icon="toggle-on"
   role="img"
   viewBox="0 0 576 512"
   class="svg-inline--fa fa-toggle-on fa-w-18 fa-7x"
   version="1.1"
   id="svg4"
   sodipodi:docname="switch-off.svg"
   inkscape:version="0.92.4 (5da689c313, 2019-01-14)">
  <metadata
     id="metadata10">
    <rdf:RDF>
      <cc:Work
         rdf:about="">
        <dc:format>image/svg+xml</dc:format>
        <dc:type
           rdf:resource="http://purl.org/dc/dcmitype/StillImage" />
        <dc:title></dc:title>
      </cc:Work>
    </rdf:RDF>
  </metadata>
  <defs
     id="defs8" />
  <sodipodi:namedview
     pagecolor="#ffffff"
     bordercolor="#666666"
     borderopacity="1"
     objecttolerance="10"
     gridtolerance="10"
     guidetolerance="10"
     inkscape:pageopacity="0"
     inkscape:pageshadow="2"
     inkscape:window-width="2560"
     inkscape:window-height="1377"
     id="namedview6"
     showgrid="false"
     inkscape:zoom="0.921875"
     inkscape:cx="825.52927"
     inkscape:cy="22.863398"
     inkscape:window-x="-8"
     inkscape:window-y="-8"
     inkscape:window-maximized="1"
     inkscape:current-layer="svg4" />
  <path
     style="fill:#f2f2f2;fill-opacity:0.53333333;stroke:none;stroke-width:16.39930725;stroke-miterlimit:4;stroke-dasharray:none;stroke-opacity:0.50196078"
     d="m 209.02378,382.34823 c 42.64907,-6.70396 77.81914,-32.50097 96.60897,-70.86205 24.3234,-49.65832 13.31789,-109.8204 -27.0775,-148.02035 -62.51914,-59.1213 -164.08314,-40.45612 -201.86075,37.09747 -8.56326,17.57948 -11.52551,29.82459 -12.19213,50.39886 -0.61743,19.0556 0.52146,28.25918 5.39165,43.57105 6.39051,20.09172 16.42785,36.44362 31.65369,51.56728 23.92115,23.76061 52.20969,35.9078 85.80301,36.84409 8.35255,0.2328 18.10542,-0.0356 21.67306,-0.59635 z"
     id="path817"
     inkscape:connector-curvature="0" />
  <path
     style="fill:#be3a31;fill-opacity:1;stroke:none;stroke-width:16.39930725;stroke-miterlimit:4;stroke-dasharray:none;stroke-opacity:0.50196078"
     d="m 400.50327,446.74696 c 66.75382,-6.82552 124.26132,-46.2409 154.0373,-105.57647 26.40848,-52.62503 26.40848,-117.66647 0,-170.29151 C 526.90971,115.81806 475.79922,77.923311 414.59329,67.118157 403.99125,65.246496 395.29807,65.109483 287.14734,65.109483 c -108.15074,0 -116.84392,0.137013 -127.44596,2.008674 C 80.68593,81.067366 20.49139,139.37201 3.3083502,218.60101 c -2.18543,10.07682 -2.4702,14.391 -2.4702,37.42373 0,23.03273 0.28477,27.3469 2.4702,37.42373 5.59191,25.78365 17.2327498,52.72341 31.3886398,72.64102 8.93548,12.57236 27.08629,31.63035 38.75543,40.69241 28.3707,22.03222 61.86378,35.64158 97.31318,39.5416 9.68783,1.06583 219.67001,1.45287 229.73767,0.42346 z M 166.61621,389.39645 C 125.88497,382.29352 89.16233,354.83163 70.22444,317.31287 64.98805,306.93879 59.65808,291.8186 57.57236,281.42111 c -2.0489,-10.21391 -1.7196,-40.46023 0.56951,-52.31107 3.26861,-16.92173 10.03504,-32.87993 20.78386,-49.01751 19.46521,-29.22376 49.75558,-49.53071 85.10296,-57.05384 14.64423,-3.1168 38.1492,-3.38476 52.36597,-0.59699 64.02226,12.55415 110.3459,68.63283 110.3459,133.58304 0,36.30843 -14.07022,70.00438 -40.10072,96.03487 -18.81018,18.81018 -42.28217,31.60373 -68.37386,37.26757 -9.96177,2.16245 -39.42003,2.20196 -51.64977,0.0693 z"
     id="path819"
     inkscape:connector-curvature="0" />
</svg>
