<?xml version="1.0" encoding="UTF-8" standalone="no"?>
<svg
   xmlns:dc="http://purl.org/dc/elements/1.1/"
   xmlns:cc="http://creativecommons.org/ns#"
   xmlns:rdf="http://www.w3.org/1999/02/22-rdf-syntax-ns#"
   xmlns:svg="http://www.w3.org/2000/svg"
   xmlns="http://www.w3.org/2000/svg"
   xmlns:sodipodi="http://sodipodi.sourceforge.net/DTD/sodipodi-0.dtd"
   xmlns:inkscape="http://www.inkscape.org/namespaces/inkscape"
   aria-hidden="true"
   focusable="false"
   data-prefix="fas"
   data-icon="toggle-on"
   role="img"
   viewBox="0 0 576 512"
   class="svg-inline--fa fa-toggle-on fa-w-18 fa-7x"
   version="1.1"
   id="svg4"
   sodipodi:docname="switch-on.svg"
   inkscape:version="0.92.4 (5da689c313, 2019-01-14)">
  <metadata
     id="metadata10">
    <rdf:RDF>
      <cc:Work
         rdf:about="">
        <dc:format>image/svg+xml</dc:format>
        <dc:type
           rdf:resource="http://purl.org/dc/dcmitype/StillImage" />
        <dc:title></dc:title>
      </cc:Work>
    </rdf:RDF>
  </metadata>
  <defs
     id="defs8" />
  <sodipodi:namedview
     pagecolor="#ffffff"
     bordercolor="#666666"
     borderopacity="1"
     objecttolerance="10"
     gridtolerance="10"
     guidetolerance="10"
     inkscape:pageopacity="0"
     inkscape:pageshadow="2"
     inkscape:window-width="2560"
     inkscape:window-height="1377"
     id="namedview6"
     showgrid="false"
     inkscape:zoom="0.921875"
     inkscape:cx="825.52927"
     inkscape:cy="22.863398"
     inkscape:window-x="-8"
     inkscape:window-y="-8"
     inkscape:window-maximized="1"
     inkscape:current-layer="svg4" />
  <path
     style="fill:#f2f2f2;fill-opacity:0.53333336;stroke:none;stroke-width:16.39930725;stroke-miterlimit:4;stroke-dasharray:none;stroke-opacity:0.50196081"
     d="m 366.1613,382.34823 c -42.64907,-6.70396 -77.81914,-32.50097 -96.60897,-70.86205 -24.3234,-49.65832 -13.31789,-109.8204 27.0775,-148.02035 62.51914,-59.1213 164.08314,-40.45612 201.86075,37.09747 8.56326,17.57948 11.52551,29.82459 12.19213,50.39886 0.61743,19.0556 -0.52146,28.25918 -5.39165,43.57105 -6.39051,20.09172 -16.42785,36.44362 -31.65369,51.56728 -23.92115,23.76061 -52.20969,35.9078 -85.80301,36.84409 -8.35255,0.2328 -18.10542,-0.0356 -21.67306,-0.59635 z"
     id="path817"
     inkscape:connector-curvature="0" />
  <path
     style="fill:#30ad63;fill-opacity:1;stroke:none;stroke-width:16.39930725;stroke-miterlimit:4;stroke-dasharray:none;stroke-opacity:0.50196078"
     d="M 174.68181,446.74696 C 107.92799,439.92144 50.420489,400.50606 20.644509,341.17049 c -26.4084784,-52.62503 -26.4084784,-117.66647 0,-170.29151 27.630864,-55.06092 78.741355,-92.955669 139.947281,-103.760823 10.60204,-1.871661 19.29522,-2.008674 127.44595,-2.008674 108.15074,0 116.84392,0.137013 127.44596,2.008674 79.01545,13.949209 139.20999,72.253853 156.39303,151.482853 2.18543,10.07682 2.4702,14.391 2.4702,37.42373 0,23.03273 -0.28477,27.3469 -2.4702,37.42373 -5.59191,25.78365 -17.23275,52.72341 -31.38864,72.64102 -8.93548,12.57236 -27.08629,31.63035 -38.75543,40.69241 -28.3707,22.03222 -61.86378,35.64158 -97.31318,39.5416 -9.68783,1.06583 -219.67001,1.45287 -229.73767,0.42346 z m 233.88706,-57.35051 c 40.73124,-7.10293 77.45388,-34.56482 96.39177,-72.08358 5.23639,-10.37408 10.56636,-25.49427 12.65208,-35.89176 2.0489,-10.21391 1.7196,-40.46023 -0.56951,-52.31107 -3.26861,-16.92173 -10.03504,-32.87993 -20.78386,-49.01751 -19.46521,-29.22376 -49.75558,-49.53071 -85.10296,-57.05384 -14.64423,-3.1168 -38.1492,-3.38476 -52.36597,-0.59699 -64.02226,12.55415 -110.3459,68.63283 -110.3459,133.58304 0,36.30843 14.07022,70.00438 40.10072,96.03487 18.81018,18.81018 42.28217,31.60373 68.37386,37.26757 9.96177,2.16245 39.42003,2.20196 51.64977,0.0693 z"
     id="path819"
     inkscape:connector-curvature="0" />
</svg>
